<?xml version="1.0" encoding="UTF-8" standalone="no"?>
<!-- Created with Inkscape (http://www.inkscape.org/) -->

<svg
   version="1.1"
   id="svg1"
   width="165.22533"
   height="111.28667"
   viewBox="0 0 165.22533 111.28667"
   xmlns="http://www.w3.org/2000/svg"
   xmlns:svg="http://www.w3.org/2000/svg">
  <defs
     id="defs1">
    <filter
       style="color-interpolation-filters:sRGB"
       id="filter1"
       x="0"
       y="0"
       width="1"
       height="1">
      <feColorMatrix
         values="-1 0 0 0 1 0 -1 0 0 1 0 0 -1 0 1 -0.21 -0.72 -0.07 2 0 "
         result="color2"
         id="feColorMatrix1" />
    </filter>
  </defs>
  <g
     id="g1"
     style="filter:url(#filter1)">
    <path
       id="path1"
       d="M 6.8596,7.48611 31.34888,34.21202"
       style="fill:none;stroke:#000000;stroke-width:0.3985;stroke-linecap:butt;stroke-linejoin:miter;stroke-miterlimit:10;stroke-dasharray:none;stroke-opacity:1"
       transform="matrix(1.3333333,0,0,-1.3333333,12.326667,101.57067)" />
    <path
       id="path2"
       d="M 21.58118,23.55241 15.1104,20.53476 19.13919,16.84317 Z"
       style="fill:#000000;fill-opacity:1;fill-rule:nonzero;stroke:none"
       transform="matrix(1.3333333,0,0,-1.3333333,12.326667,101.57067)" />
    <path
       id="path3"
       d="M 31.34888,34.21202 6.57713,61.40277"
       style="fill:none;stroke:#000000;stroke-width:0.3985;stroke-linecap:butt;stroke-linejoin:miter;stroke-miterlimit:10;stroke-dasharray:none;stroke-opacity:1"
       transform="matrix(1.3333333,0,0,-1.3333333,12.326667,101.57067)" />
    <path
       id="path4"
       d="m 16.48769,50.5245 2.4227,-6.71621 4.03938,3.68001 z"
       style="fill:#000000;fill-opacity:1;fill-rule:nonzero;stroke:none"
       transform="matrix(1.3333333,0,0,-1.3333333,12.326667,101.57067)" />
    <path
       id="path5"
       d="m 31.34888,34.21202 h 0.51352 l 0.51352,0.62267 0.51351,0.45582 0.51354,0.16686 0.51352,-0.16686 0.51352,-0.45582 0.51352,-0.62267 0.51353,-0.62268 0.51352,-0.45583 0.51352,-0.16684 0.51352,0.16684 0.51353,0.45583 0.51352,0.62268 0.51353,0.62267 0.51351,0.45582 0.51354,0.16686 0.51352,-0.16686 0.51352,-0.45582 0.51351,-0.62267 0.51352,-0.62268 0.51354,-0.45583 0.51352,-0.16684 0.51352,0.16684 0.51352,0.45583 0.51353,0.62268 0.51352,0.62267 0.51352,0.45582 0.51352,0.16686 0.51353,-0.16686 0.51352,-0.45582 0.51352,-0.62267 0.51352,-0.62268 0.51352,-0.45583 0.51353,-0.16684 0.51352,0.16684 0.51353,0.45583 0.51351,0.62268 0.51354,0.62267 0.51352,0.45582 0.51352,0.16686 0.51351,-0.16686 0.51354,-0.45582 0.51352,-0.62267 0.51352,-0.62268 0.51352,-0.45583 0.51352,-0.16684 0.51353,0.16684 0.51352,0.45583 0.51352,0.62268 0.51352,0.62267 0.51353,0.45582 0.51352,0.16686 0.51352,-0.16686 0.51352,-0.45582 0.51354,-0.62267 0.51352,-0.62268 0.51351,-0.45583 0.51353,-0.16684 0.51351,0.16684 0.51354,0.45583 0.51352,0.62268 0.51352,0.62267 0.51351,0.45582 0.51354,0.16686 0.51352,-0.16686 0.51352,-0.45582 0.51352,-0.62267 0.51353,-0.62268 0.51352,-0.45583 0.51352,-0.16684 0.51352,0.16684 0.51354,0.45583 0.51351,0.62268 0.51352,0.62267 0.51352,0.45582 0.51352,0.16686 0.51354,-0.16686 0.51352,-0.45582 0.51352,-0.62267 0.51352,-0.62268 0.51353,-0.45583 0.51352,-0.16684 1.02829,1.24535"
       style="fill:none;stroke:#000000;stroke-width:0.3985;stroke-linecap:butt;stroke-linejoin:miter;stroke-miterlimit:10;stroke-dasharray:none;stroke-opacity:1"
       transform="matrix(1.3333333,0,0,-1.3333333,12.326667,101.57067)" />
    <path
       id="path6"
       d="m 0.40982031,-2.5314844 c 0.38671875,-1.1484375 1.47656249,-1.1601562 1.58203129,-1.1601562 1.5,0 1.6171875,1.7460937 1.6171875,2.53125 0,0.60937498 -0.058594,0.78515623 -0.1171875,0.98437498 -0.2226563,0.7265625 -0.5273438,1.87500002 -0.5273438,2.13281252 0,0.1171875 0.058594,0.1875 0.1289063,0.1875 0.1289062,0 0.2109375,-0.2226563 0.328125,-0.5976563 0.2226562,-0.84374997 0.328125,-1.40624997 0.3632812,-1.71093747 0.023437,-0.140625 0.035156,-0.26953125 0.082031,-0.3984375 C 4.1832575,-1.5471094 4.81607,-3.0236719 5.2145075,-3.8205469 c 0.070312,-0.1171875 0.1992188,-0.328125 0.1992188,-0.375 0,-0.09375 -0.1054688,-0.09375 -0.1289063,-0.09375 -0.023437,0 -0.082031,0 -0.1171875,0.070312 -0.515625,0.9375 -0.9140625,1.9335938 -1.3125,2.9414063 -0.011719,-0.3046875 -0.023437,-1.0664063 -0.4101562,-2.0273438 -0.234375,-0.609375 -0.6328125,-1.1015625 -1.3242188,-1.1015625 -1.24218749,0 -1.94531249,1.5117188 -1.94531249,1.828125 0,0.09375 0.09375,0.09375 0.1875,0.09375 z m 0,0"
       style="fill:#000000;fill-opacity:1;fill-rule:nonzero;stroke:none"
       aria-label="γ"
       transform="matrix(1.3333333,0,0,1.3333333,79.074667,48.68)" />
    <path
       id="path7"
       d="M 98.9407,61.40654 74.48604,34.21202"
       style="fill:none;stroke:#000000;stroke-width:0.3985;stroke-linecap:butt;stroke-linejoin:miter;stroke-miterlimit:10;stroke-dasharray:none;stroke-opacity:1"
       transform="matrix(1.3333333,0,0,-1.3333333,12.326667,101.57067)" />
    <path
       id="path8"
       d="m 84.25426,45.07481 6.44249,3.07807 -4.06322,3.65388 z"
       style="fill:#000000;fill-opacity:1;fill-rule:nonzero;stroke:none"
       transform="matrix(1.3333333,0,0,-1.3333333,12.326667,101.57067)" />
    <path
       id="path9"
       d="M 74.48604,34.21202 98.57797,7.55183"
       style="fill:none;stroke:#000000;stroke-width:0.3985;stroke-linecap:butt;stroke-linejoin:miter;stroke-miterlimit:10;stroke-dasharray:none;stroke-opacity:1"
       transform="matrix(1.3333333,0,0,-1.3333333,12.326667,101.57067)" />
    <path
       id="path10"
       d="m 88.99336,18.15883 -2.39573,6.72606 -4.05422,-3.66384 z"
       style="fill:#000000;fill-opacity:1;fill-rule:nonzero;stroke:none"
       transform="matrix(1.3333333,0,0,-1.3333333,12.326667,101.57067)" />
    <path
       id="path11"
       d="m 1.8627813,-2.2963438 c 0.2929687,0 1.03125,-0.023437 1.5234375,-0.234375 0.703125,-0.2929687 0.75,-0.890625 0.75,-1.0195312 0,-0.4453125 -0.3867188,-0.8554688 -1.0664063,-0.8554688 -1.1132812,0 -2.61328125,0.9726563 -2.61328125,2.7070313 0,1.01953125 0.58593755,1.8046875 1.57031255,1.8046875 1.4179687,0 2.2617187,-1.0546875 2.2617187,-1.171875 0,-0.058594 -0.070312,-0.1289063 -0.1289062,-0.1289063 -0.046875,0 -0.070312,0.023437 -0.1289063,0.09375 -0.7851562,0.9960938 -1.875,0.9960938 -1.9921875,0.9960938 -0.7734375,0 -0.8671875,-0.84375 -0.8671875,-1.1601563 0,-0.1171875 0.011719,-0.4335937 0.1640625,-1.03125 z M 1.3940313,-2.519 C 1.78075,-4.0307188 2.812,-4.1830625 3.0698125,-4.1830625 c 0.46875,0 0.7382813,0.2929687 0.7382813,0.6328125 0,1.03125 -1.59375,1.03125 -2.0039063,1.03125 z m 0,0"
       style="fill:#000000;fill-opacity:1;fill-rule:nonzero;stroke:none"
       aria-label="e"
       transform="matrix(1.3333333,0,0,1.3333333,4.7506667,106.85867)" />
    <path
       id="path12"
       d="m 5.1925312,-1.5700156 c 0.1054688,0 0.2695313,0 0.2695313,-0.1757813 0,-0.1757812 -0.1523438,-0.1757812 -0.2695313,-0.1757812 H 1.032375 c -0.10546875,0 -0.28125,0 -0.28125,0.1757812 0,0.1757813 0.1640625,0.1757813 0.28125,0.1757813 z m 0,0"
       style="fill:#000000;fill-opacity:1;fill-rule:nonzero;stroke:none"
       aria-label="−"
       transform="matrix(1.3333333,0,0,1.3333333,10.936,102.03867)" />
    <path
       id="path13"
       d="m 1.8645469,-2.2970156 c 0.2929687,0 1.03125,-0.023437 1.5234375,-0.234375 0.703125,-0.2929688 0.75,-0.890625 0.75,-1.0195313 0,-0.4453125 -0.3867188,-0.8554687 -1.0664063,-0.8554687 -1.1132812,0 -2.61328122,0.9726562 -2.61328122,2.7070312 0,1.01953127 0.58593752,1.80468752 1.57031252,1.80468752 1.4179687,0 2.2617187,-1.0546875 2.2617187,-1.17187502 0,-0.058594 -0.070312,-0.1289062 -0.1289062,-0.1289062 -0.046875,0 -0.070312,0.023437 -0.1289063,0.09375 -0.7851562,0.99609372 -1.875,0.99609372 -1.9921875,0.99609372 -0.7734375,0 -0.8671875,-0.84375 -0.8671875,-1.16015622 0,-0.1171875 0.011719,-0.4335938 0.1640625,-1.03125 z m -0.46875,-0.2226563 c 0.3867187,-1.5117187 1.4179687,-1.6640625 1.6757812,-1.6640625 0.46875,0 0.7382813,0.2929688 0.7382813,0.6328125 0,1.03125 -1.59375,1.03125 -2.0039063,1.03125 z m 0,0"
       style="fill:#000000;fill-opacity:1;fill-rule:nonzero;stroke:none"
       aria-label="e"
       transform="matrix(1.3333333,0,0,1.3333333,4.428,15.008)" />
    <path
       id="path14"
       d="m 5.1923672,-1.5706875 c 0.1054687,0 0.2695312,0 0.2695312,-0.1757813 0,-0.1757812 -0.1523437,-0.1757812 -0.2695312,-0.1757812 H 1.0322109 c -0.10546871,0 -0.28124996,0 -0.28124996,0.1757812 0,0.1757813 0.1640625,0.1757813 0.28124996,0.1757813 z m 0,0"
       style="fill:#000000;fill-opacity:1;fill-rule:nonzero;stroke:none"
       aria-label="−"
       transform="matrix(1.3333333,0,0,1.3333333,10.612,10.188)" />
    <path
       id="path15"
       d="m 1.8646094,-2.2969453 c 0.2929687,0 1.03125,-0.023437 1.5234375,-0.234375 0.703125,-0.2929688 0.75,-0.890625 0.75,-1.0195313 0,-0.4453125 -0.3867188,-0.8554687 -1.0664063,-0.8554687 -1.1132812,0 -2.61328122,0.9726562 -2.61328122,2.7070312 0,1.01953129 0.58593752,1.80468754 1.57031252,1.80468754 1.4179687,0 2.2617187,-1.0546875 2.2617187,-1.17187504 0,-0.058594 -0.070312,-0.1289062 -0.1289062,-0.1289062 -0.046875,0 -0.070312,0.023437 -0.1289063,0.09375 -0.7851562,0.99609374 -1.875,0.99609374 -1.9921875,0.99609374 -0.7734375,0 -0.8671875,-0.84375 -0.8671875,-1.16015624 0,-0.1171875 0.011719,-0.4335938 0.1640625,-1.03125 z m -0.46875,-0.2226563 c 0.3867187,-1.5117187 1.4179687,-1.6640625 1.6757812,-1.6640625 0.46875,0 0.7382813,0.2929688 0.7382813,0.6328125 0,1.03125 -1.59375,1.03125 -2.0039063,1.03125 z m 0,0"
       style="fill:#000000;fill-opacity:1;fill-rule:nonzero;stroke:none"
       aria-label="e"
       transform="matrix(1.3333333,0,0,1.3333333,145.64667,15.004)" />
    <path
       id="path16"
       d="m 5.1914297,-1.5696172 c 0.1054687,0 0.2695312,0 0.2695312,-0.1757812 0,-0.1757813 -0.1523437,-0.1757813 -0.2695312,-0.1757813 H 1.0312734 c -0.10546871,0 -0.28124996,0 -0.28124996,0.1757813 0,0.1757812 0.1640625,0.1757812 0.28124996,0.1757812 z m 0,0"
       style="fill:#000000;fill-opacity:1;fill-rule:nonzero;stroke:none"
       aria-label="−"
       transform="matrix(1.3333333,0,0,1.3333333,151.832,10.182667)" />
    <path
       id="path17"
       d="m 1.8635547,-2.2957969 c 0.2929687,0 1.03125,-0.023437 1.5234375,-0.234375 0.703125,-0.2929687 0.75,-0.890625 0.75,-1.0195312 0,-0.4453125 -0.3867188,-0.8554688 -1.0664063,-0.8554688 -1.1132812,0 -2.61328121,0.9726563 -2.61328121,2.7070313 0,1.01953122 0.58593751,1.80468747 1.57031251,1.80468747 1.4179687,0 2.2617187,-1.0546875 2.2617187,-1.17187497 0,-0.058594 -0.070312,-0.1289063 -0.1289062,-0.1289063 -0.046875,0 -0.070312,0.023437 -0.1289063,0.09375 -0.7851562,0.99609377 -1.875,0.99609377 -1.9921875,0.99609377 -0.7734375,0 -0.8671875,-0.84375 -0.8671875,-1.16015627 0,-0.1171875 0.011719,-0.4335937 0.1640625,-1.03125 z m -0.46875,-0.2226562 c 0.3867187,-1.5117188 1.4179687,-1.6640625 1.6757812,-1.6640625 0.46875,0 0.7382813,0.2929687 0.7382813,0.6328125 0,1.03125 -1.59375,1.03125 -2.0039063,1.03125 z m 0,0"
       style="fill:#000000;fill-opacity:1;fill-rule:nonzero;stroke:none"
       aria-label="e"
       transform="matrix(1.3333333,0,0,1.3333333,145.20667,106.772)" />
    <path
       id="path18"
       d="m 5.190375,-1.5713984 c 0.1054688,0 0.2695313,0 0.2695313,-0.1757813 0,-0.1757812 -0.1523438,-0.1757812 -0.2695313,-0.1757812 H 1.0302188 c -0.1054688,0 -0.28125005,0 -0.28125005,0.1757812 0,0.1757813 0.1640625,0.1757813 0.28125005,0.1757813 z m 0,0"
       style="fill:#000000;fill-opacity:1;fill-rule:nonzero;stroke:none"
       aria-label="−"
       transform="matrix(1.3333333,0,0,1.3333333,151.392,101.95067)" />
  </g>
</svg>
